<svg viewBox="0 0 576 512" xmlns="http://www.w3.org/2000/svg"><path d="m512 32h-448c-35.35 0-64 28.65-64 64v320c0 35.35 28.65 64 64 64h448c35.35 0 64-28.65 64-64v-320c0-35.35-28.7-64-64-64zm-336 96c35.35 0 64 28.65 64 64s-28.65 64-64 64-64-28.65-64-64 28.7-64 64-64zm96 256h-192c-8.84 0-16-7.2-16-16 0-44.2 35.82-80 80-80h64c44.18 0 80 35.82 80 80 0 8.8-7.2 16-16 16zm224-64h-128c-8.8 0-16-7.2-16-16s7.2-16 16-16h128c8.8 0 16 7.2 16 16s-7.2 16-16 16zm0-64h-128c-8.8 0-16-7.2-16-16s7.2-16 16-16h128c8.8 0 16 7.2 16 16s-7.2 16-16 16zm0-64h-128c-8.8 0-16-7.2-16-16s7.2-16 16-16h128c8.8 0 16 7.2 16 16s-7.2 16-16 16z"/></svg>